<svg xmlns="http://www.w3.org/2000/svg" width="501" height="317" viewBox="-0.378 -0.624 501 317"><path fill-rule="evenodd" clip-rule="evenodd" fill="#fff" d="M472.147 34.647c-12.912-21.999-80.82-7.652-165.468 31.084 4.306 3.349 8.609 7.174 11.956 11 65.041-27.737 115.253-36.344 125.776-18.173 11.956 20.565-35.392 71.735-111.431 122.428l.959.955c92.777-60.256 152.556-122.425 138.208-147.294zM71.392 273.764c-7.174-12.914 8.13-37.303 38.736-66.474-2.391-.48-4.781-1.437-7.173-2.393-.478 0-.478-.48-.478-.48l-7.174-2.866C58.48 235.5 39.829 264.196 48.438 279.503c10.521 17.693 55.951 11.954 116.686-10.522l-.477-.956c-48.781 16.737-84.647 20.084-93.255 5.739z"/><path fill-rule="evenodd" clip-rule="evenodd" fill="#fff" d="M33.134 125.033c0-52.127 68.865-94.69 153.511-94.69 85.124 0 153.99 42.563 153.99 94.69 0 52.605-68.866 95.167-153.99 95.167-84.646-.001-153.511-42.562-153.511-95.167zm87.037-73.647l29.174 98.993L179.95 38.472c-21.521.959-42.084 5.26-59.779 12.914zm58.344 41.128l-15.782 57.865h32.042l-16.26-57.865zm45.432 57.865l27.737-99.95c-18.172-7.174-38.736-11.479-60.257-11.957l32.52 111.907zm-104.253 0L103.91 92.514l-15.779 57.865h31.563zm182.204 11.477c7.651-11 11.957-23.433 11.957-36.824 0-25.346-15.782-47.823-41.608-64.084l29.651 100.908zm-32.518-11.477l-16.26-57.865-15.781 57.865h32.041zm3.348 11.477H233.99l-3.346 12.434 9.085 29.646c14.825-4.303 28.214-10.998 39.215-19.123l-6.216-22.957zm-138.209 42.081l-11.479-42.08H84.783l-3.349 11.953c13.391 13.39 31.563 23.913 53.084 30.607v-.48h.001zm63.605-42.081h-38.738l-12.434 45.908c12.434 2.872 25.826 4.304 39.693 4.304 8.609 0 16.738-.476 24.868-1.912l-13.389-48.3zM98.651 62.863c-23.911 15.78-38.736 37.781-38.736 62.17 0 13.391 4.303 25.346 11.477 36.345l27.259-98.515z"/></svg>