<svg xmlns="http://www.w3.org/2000/svg" xmlns:xlink="http://www.w3.org/1999/xlink" width="40" height="40" viewBox="0 0 40 40"><defs><style>.a{fill:none;}.b{clip-path:url(#a);}.c{fill:#003087;}</style><clipPath id="a"><rect class="a" width="40" height="40"/></clipPath></defs><g class="b"><rect class="a" width="40" height="40"/><g transform="translate(5 5)"><path class="c" d="M32.425,37.573a3.114,3.114,0,1,1-6.226,0V30H24.5v7.573a4.813,4.813,0,1,0,9.623,0Z" transform="translate(-10.632 -12.524)"/><path class="c" d="M15,0A15.242,15.242,0,0,0,0,15.437c0,.285.011.571.023.856.017.3.04.6.074.891H1.811a3.823,3.823,0,0,1,3.764-3.728A3.823,3.823,0,0,1,9.34,17.184h1.9a3.764,3.764,0,0,1,7.528,0h1.9a3.764,3.764,0,0,1,7.528,0h1.715c.034-.3.057-.594.074-.891,0-.285.011-.571.011-.856A15.242,15.242,0,0,0,15,0Zm9.425,11.517a5.6,5.6,0,0,0-4.709,2.6,5.561,5.561,0,0,0-9.419,0,5.614,5.614,0,0,0-4.709-2.6A5.505,5.505,0,0,0,1.942,12.9,13.414,13.414,0,0,1,15,1.748,13.436,13.436,0,0,1,28.07,12.891,5.53,5.53,0,0,0,24.425,11.517Z" transform="translate(0 0)"/></g></g></svg>