<svg xmlns="http://www.w3.org/2000/svg" viewBox="0 0 24.998 19.393">
  <defs>
    <style>
      .cls-1 {
        fill: #231f20;
      }

      .cls-2 {
        fill: #ff5f00;
      }

      .cls-3 {
        fill: #eb001b;
      }

      .cls-4 {
        fill: #f79e1b;
      }
    </style>
  </defs>
  <g id="mastercard" transform="translate(-45 -202)">
    <path id="Path_23" data-name="Path 23" class="cls-1" d="M-181.57-19.924a.616.616,0,0,1,.623-.657.615.615,0,0,1,.618.657.615.615,0,0,1-.618.657.616.616,0,0,1-.623-.657m1.661,0V-20.95h-.446v.249A.778.778,0,0,0-181-21a1.028,1.028,0,0,0-1.026,1.078A1.028,1.028,0,0,0-181-18.847a.778.778,0,0,0,.648-.3v.249h.446Zm15.077,0a.616.616,0,0,1,.623-.657.615.615,0,0,1,.618.657.615.615,0,0,1-.618.657.616.616,0,0,1-.623-.657m1.662,0v-1.85h-.447V-20.7a.778.778,0,0,0-.648-.3,1.028,1.028,0,0,0-1.026,1.078,1.028,1.028,0,0,0,1.026,1.078.778.778,0,0,0,.648-.3v.249h.447Zm-11.2-.678a.51.51,0,0,1,.519.5h-1.065a.528.528,0,0,1,.545-.5m.009-.4a1,1,0,0,0-1.022,1.078,1.012,1.012,0,0,0,1.052,1.078,1.247,1.247,0,0,0,.841-.287l-.219-.331a.981.981,0,0,1-.6.215.57.57,0,0,1-.614-.5h1.524c0-.056.009-.112.009-.171A.984.984,0,0,0-174.362-21m5.387,1.078a.616.616,0,0,1,.623-.657.615.615,0,0,1,.618.657.615.615,0,0,1-.618.657.616.616,0,0,1-.623-.657m1.661,0V-20.95h-.446v.249a.778.778,0,0,0-.648-.3,1.028,1.028,0,0,0-1.026,1.078,1.028,1.028,0,0,0,1.026,1.078.778.778,0,0,0,.648-.3v.249h.446Zm-4.181,0a1.037,1.037,0,0,0,1.095,1.078,1.074,1.074,0,0,0,.738-.245l-.214-.361a.9.9,0,0,1-.537.185.613.613,0,0,1-.618-.657.613.613,0,0,1,.618-.657.9.9,0,0,1,.537.185l.214-.361A1.074,1.074,0,0,0-170.4-21a1.037,1.037,0,0,0-1.095,1.078M-165.743-21a.606.606,0,0,0-.541.3v-.249h-.442V-18.9h.447v-1.15c0-.34.146-.528.438-.528a.723.723,0,0,1,.279.052l.138-.421a.95.95,0,0,0-.318-.056m-11.96.215a1.535,1.535,0,0,0-.837-.215c-.52,0-.854.249-.854.657,0,.335.249.541.708.605l.211.03c.245.034.36.1.36.215,0,.159-.163.249-.468.249a1.093,1.093,0,0,1-.682-.215l-.21.347a1.48,1.48,0,0,0,.888.266c.593,0,.936-.279.936-.67,0-.361-.27-.549-.717-.614l-.21-.03c-.193-.026-.348-.064-.348-.2s.146-.24.391-.24a1.324,1.324,0,0,1,.64.176Zm5.757-.215a.6.6,0,0,0-.54.3v-.249h-.442V-18.9h.446v-1.15c0-.34.146-.528.438-.528a.723.723,0,0,1,.279.052l.138-.421a.951.951,0,0,0-.318-.056m-3.807.052h-.73v-.623h-.451v.623h-.416v.408h.416v.936c0,.476.185.76.712.76a1.047,1.047,0,0,0,.558-.159l-.129-.382a.826.826,0,0,1-.4.116c-.223,0-.3-.138-.3-.343v-.927h.73Zm-6.671,2.052v-1.288a.764.764,0,0,0-.807-.816.794.794,0,0,0-.721.365.753.753,0,0,0-.678-.365.679.679,0,0,0-.6.3v-.253h-.447V-18.9h.451v-1.137a.48.48,0,0,1,.5-.545c.3,0,.446.193.446.541V-18.9h.451v-1.137a.484.484,0,0,1,.5-.545c.3,0,.451.193.451.541V-18.9Z" transform="translate(231.951 240.238)"/>
    <path id="Path_25" data-name="Path 25" class="cls-2" d="M3349.765,2159.724H3343v-12.152h6.761Z" transform="translate(-3288.885 -1943.918)"/>
    <path id="Path_26" data-name="Path 26" class="cls-3" d="M-66.84-54.081a7.716,7.716,0,0,1,2.952-6.076,7.694,7.694,0,0,0-4.776-1.652,7.728,7.728,0,0,0-7.727,7.728,7.728,7.728,0,0,0,7.727,7.728A7.694,7.694,0,0,0-63.888-48a7.715,7.715,0,0,1-2.952-6.076" transform="translate(121.392 263.809)"/>
    <path id="Path_27" data-name="Path 27" class="cls-4" d="M-87.5-54.081a7.728,7.728,0,0,1-7.727,7.728A7.7,7.7,0,0,1-100-48a7.714,7.714,0,0,0,2.952-6.076A7.714,7.714,0,0,0-100-60.157a7.7,7.7,0,0,1,4.776-1.652A7.728,7.728,0,0,1-87.5-54.081" transform="translate(157.497 263.809)"/>
  </g>
</svg>
