<svg xmlns="http://www.w3.org/2000/svg" xmlns:xlink="http://www.w3.org/1999/xlink" width="40" height="40" viewBox="0 0 40 40"><defs><style>.a{fill:none;}.b{clip-path:url(#a);}.c{fill:#003087;}</style><clipPath id="a"><rect class="a" width="40" height="40"/></clipPath></defs><g class="b"><rect class="a" width="40" height="40"/><g transform="translate(1.269 0.51)"><path class="c" d="M26.6,7.609,24.523,2.056A3,3,0,0,0,21.538,0H8.339A3.158,3.158,0,0,0,5.4,2.056L3.272,7.609H0V21.227H2.082v3.084A1.663,1.663,0,0,0,3.76,26H7.11a1.654,1.654,0,0,0,1.633-1.689V21.227H21.212v3.084A1.663,1.663,0,0,0,22.89,26h3.35a1.626,1.626,0,0,0,1.633-1.689V21.227H30V7.609ZM6.824,2.553a1.774,1.774,0,0,1,1.51-.988h13.2a1.688,1.688,0,0,1,1.51.988l1.919,5.061H4.944Zm.37,21.882H3.636V21.227H7.194Zm19.125,0H22.761V21.227h3.558Zm2.127-4.773H1.554V9.173H28.446Z" transform="translate(3.731 6.49)"/><path class="c" d="M9.73,27.33A3.214,3.214,0,0,0,12.98,24.1,3.25,3.25,0,1,0,9.73,27.33Zm0-4.819a1.569,1.569,0,1,1,0,3.138,1.569,1.569,0,1,1,0-3.138Z" transform="translate(1.199 -2.954)"/><path class="c" d="M39.5,27.33A3.225,3.225,0,0,0,42.77,24.1,3.261,3.261,0,0,0,39.5,20.83,3.225,3.225,0,0,0,36.27,24.1,3.189,3.189,0,0,0,39.5,27.33Zm0-4.819a1.569,1.569,0,1,1-1.548,1.59A1.645,1.645,0,0,1,39.5,22.511Z" transform="translate(-13.012 -2.954)"/></g></g></svg>