<?xml version="1.0" encoding="UTF-8" standalone="no"?>
<svg width="40px" height="40px" viewBox="0 0 40 40" version="1.1" xmlns="http://www.w3.org/2000/svg" xmlns:xlink="http://www.w3.org/1999/xlink">
    <!-- Generator: Sketch 47.1 (45422) - http://www.bohemiancoding.com/sketch -->
    <title>phone</title>
    <desc>Created with Sketch.</desc>
    <defs></defs>
    <g id="Page-1" stroke="none" stroke-width="1" fill="none" fill-rule="evenodd">
        <g id="phone" fill="#DA291C">
            <path d="M21.1662,28.8987 C21.1662,29.4317 20.7662,29.8317 20.2332,29.8317 C19.7002,29.8317 19.2662,29.4317 19.2662,28.8987 C19.2662,28.3657 19.7002,27.9317 20.2332,27.9317 C20.7662,27.9317 21.1662,28.3657 21.1662,28.8987 L21.1662,28.8987 Z M19.1662,10.5327 L21.3322,10.5327 L21.3322,9.3997 L19.1662,9.3997 L19.1662,10.5327 Z M24.7992,31.3657 C25.5992,31.3657 26.0992,30.6317 26.0992,30.0987 L26.0992,26.0657 L14.2672,26.0657 L14.2672,30.0987 C14.2672,30.6987 14.7662,31.3657 15.5332,31.3657 L24.7992,31.3657 Z M14.2662,24.7997 L26.0992,24.7997 L26.0992,13.0667 L14.2662,13.0667 L14.2662,24.7997 Z M15.5332,8.2667 C14.7332,8.2667 14.2672,8.9997 14.2672,9.5667 L14.2672,11.7997 L26.0992,11.7997 L26.0992,9.5667 C26.0992,9.0997 25.6992,8.2667 24.7992,8.2667 L15.5332,8.2667 Z M24.6662,6.9997 C26.4662,6.9997 27.3662,8.0337 27.3662,9.4667 L27.3662,30.1317 C27.3662,31.4987 26.4992,32.6317 24.6332,32.6317 L15.7662,32.6317 C14.0662,32.6317 13.0002,31.5987 13.0002,30.1317 L13.0002,9.4667 C13.0002,8.0337 13.9332,6.9997 15.7662,6.9997 L24.6662,6.9997 Z" id="Fill-1"></path>
        </g>
    </g>
</svg>