<?xml version="1.0" encoding="UTF-8" standalone="no"?>
<svg width="40px" height="40px" viewBox="0 0 40 40" version="1.1" xmlns="http://www.w3.org/2000/svg" xmlns:xlink="http://www.w3.org/1999/xlink">
    <!-- Generator: Sketch 47.1 (45422) - http://www.bohemiancoding.com/sketch -->
    <title>avatar</title>
    <desc>Created with Sketch.</desc>
    <defs></defs>
    <g id="Page-1" stroke="none" stroke-width="1" fill="none" fill-rule="evenodd">
        <g id="avatar" fill="#DA291C">
            <path d="M22.466,16.3667 C22.466,14.9667 21.233,13.7337 19.833,13.7337 C18.366,13.7337 17.2,14.9667 17.2,16.3667 C17.2,17.7997 18.399,18.9997 19.833,18.9997 C21.233,18.9997 22.466,17.8327 22.466,16.3667 L22.466,16.3667 Z M23.732,16.3667 C23.732,18.5327 21.966,20.2667 19.833,20.2667 C17.666,20.2667 15.933,18.5327 15.933,16.3667 C15.933,14.2337 17.666,12.4667 19.833,12.4667 C21.966,12.4667 23.732,14.2337 23.732,16.3667 L23.732,16.3667 Z M14.3,28.5997 C15.866,29.5657 17.733,30.1327 19.7,30.1327 C21.699,30.1327 23.566,29.5657 25.166,28.5657 L25.166,25.1997 C25.166,24.0997 24.632,22.7997 23.032,22.7997 L16.433,22.7997 C14.899,22.7997 14.3,24.0327 14.3,25.1997 L14.3,28.5997 Z M26.432,27.6657 C28.699,25.7327 30.132,22.8667 30.132,19.6997 C30.132,13.9997 25.433,9.2667 19.7,9.2667 C14,9.2667 9.267,13.9997 9.267,19.6997 C9.267,22.8997 10.733,25.7657 13.033,27.6997 L13.033,25.1997 C13.033,23.3327 14.033,21.5327 16.433,21.5327 L23.032,21.5327 C25.433,21.5327 26.432,23.3327 26.432,25.1997 L26.432,27.6657 Z M31.399,19.6997 C31.399,26.1657 26.166,31.3987 19.7,31.3987 C13.233,31.3987 8,26.1657 8,19.6997 C8,13.2337 13.233,8.0007 19.7,8.0007 C26.166,8.0007 31.399,13.2337 31.399,19.6997 L31.399,19.6997 Z" id="Page-1"></path>
        </g>
    </g>
</svg>