<svg xmlns="http://www.w3.org/2000/svg" viewBox="0 0 20 19.748">
  <defs>
    <style>
      .cls-1 {
        fill: #333;
      }
    </style>
  </defs>
  <g id="group-8" transform="translate(0.001)">
    <path id="path" class="cls-1" d="M20.612,41.017H2.708a.356.356,0,0,1-.308-.387V39.587a.353.353,0,0,1,.308-.387h17.9a.356.356,0,0,1,.308.387v1.044A.336.336,0,0,1,20.612,41.017Z" transform="translate(-1.662 -24.053)"/>
    <path id="path-2" data-name="path" class="cls-1" d="M19.688,48.217H.308A.356.356,0,0,1,0,47.831V46.787A.353.353,0,0,1,.308,46.4H19.688a.356.356,0,0,1,.308.387v1.044A.336.336,0,0,1,19.688,48.217Z" transform="translate(0 -28.469)"/>
    <g id="group" transform="translate(1.446 6.525)">
      <path id="path-3" data-name="path" class="cls-1" d="M5.1,18.353h0a.728.728,0,0,1,.369.7v3.48a.68.68,0,0,1-.369.657H5.069a.768.768,0,0,0-.369.657h0a.674.674,0,0,0,.585.735H7.653a.671.671,0,0,0,.584-.735h0a.68.68,0,0,0-.369-.657h0a.768.768,0,0,1-.369-.657v-3.48a.68.68,0,0,1,.369-.657H7.9a.768.768,0,0,0,.369-.657h0A.674.674,0,0,0,7.684,17H5.315a.671.671,0,0,0-.585.735h0A.754.754,0,0,0,5.1,18.353Z" transform="translate(-4.7 -16.961)"/>
      <path id="path-4" data-name="path" class="cls-1" d="M27,18.353h0a.728.728,0,0,1,.369.7v3.48a.68.68,0,0,1-.369.657h-.031a.768.768,0,0,0-.369.657h0a.674.674,0,0,0,.584.735h2.369a.671.671,0,0,0,.585-.735h0a.68.68,0,0,0-.369-.657H29.8a.768.768,0,0,1-.369-.657v-3.48a.68.68,0,0,1,.369-.657h.031a.768.768,0,0,0,.369-.657h0A.674.674,0,0,0,29.615,17H27.246a.671.671,0,0,0-.585.735h0A.661.661,0,0,0,27,18.353Z" transform="translate(-19.863 -16.961)"/>
      <path id="path-5" data-name="path" class="cls-1" d="M52.338,17.635h0a.674.674,0,0,0-.585-.735H49.384a.671.671,0,0,0-.584.735h0a.68.68,0,0,0,.369.657H49.2a.768.768,0,0,1,.369.657v3.48a.68.68,0,0,1-.369.657h-.031a.768.768,0,0,0-.369.657h0a.674.674,0,0,0,.584.735h2.369a.671.671,0,0,0,.585-.735h0a.68.68,0,0,0-.369-.657l-.031.039a.768.768,0,0,1-.369-.657v-3.48a.68.68,0,0,1,.369-.657h.031A.892.892,0,0,0,52.338,17.635Z" transform="translate(-35.233 -16.9)"/>
    </g>
    <path id="path-6" data-name="path" class="cls-1" d="M19.881,4.037,10.19.054a.274.274,0,0,0-.246,0L.315,4.037c-.031,0-.062.039-.062.039a.383.383,0,0,0-.123.193A.28.28,0,0,0,.1,4.423v.425a.671.671,0,0,0,.585.735H19.45a.674.674,0,0,0,.584-.735V4.385A.337.337,0,0,0,19.881,4.037Z" transform="translate(-0.069 -0.025)"/>
  </g>
</svg>
