<?xml version="1.0" encoding="UTF-8" standalone="no"?>
<svg width="40px" height="40px" viewBox="0 0 40 40" version="1.1" xmlns="http://www.w3.org/2000/svg" xmlns:xlink="http://www.w3.org/1999/xlink">
    <!-- Generator: Sketch 47.1 (45422) - http://www.bohemiancoding.com/sketch -->
    <title>car side</title>
    <desc>Created with Sketch.</desc>
    <defs></defs>
    <g id="Page-1" stroke="none" stroke-width="1" fill="none" fill-rule="evenodd">
        <g id="car-side" fill="#DA291C">
            <path d="M25.659,13.291 L30.485,19.184 L33.079,19.184 L33.079,24.186 L30.186,24.186 C29.858,22.572 28.448,21.413 26.791,21.413 C25.152,21.413 23.724,22.608 23.421,24.213 L15.522,24.213 C15.217,22.583 13.807,21.413 12.125,21.413 C10.528,21.413 9.112,22.563 8.784,24.106 L6.291,24.106 L6.291,19.918 L11.208,13.291 L25.659,13.291 Z M12.125,22.704 C13.273,22.704 14.279,23.698 14.279,24.832 C14.279,25.979 13.273,26.986 12.125,26.986 C10.992,26.986 9.997,25.979 9.997,24.832 C9.997,23.718 11.011,22.704 12.125,22.704 L12.125,22.704 Z M26.791,22.704 C27.939,22.704 28.946,23.698 28.946,24.832 C28.946,25.979 27.939,26.986 26.791,26.986 C25.638,26.986 24.663,25.999 24.663,24.832 C24.663,23.678 25.638,22.704 26.791,22.704 L26.791,22.704 Z M31.097,17.893 L26.285,12.051 L26.243,12 L10.562,12 L5.028,19.442 L5,19.479 L5,25.397 L8.752,25.397 C9.028,27.047 10.457,28.277 12.125,28.277 C13.811,28.277 15.221,27.107 15.522,25.477 L23.42,25.477 C23.721,27.107 25.12,28.277 26.791,28.277 C28.45,28.277 29.86,27.107 30.186,25.477 L34.369,25.477 L34.369,17.893 L31.097,17.893 Z" id="Page-1"></path>
        </g>
    </g>
</svg>