<?xml version="1.0" encoding="UTF-8" standalone="no"?>
<svg width="40px" height="40px" viewBox="0 0 40 40" version="1.1" xmlns="http://www.w3.org/2000/svg" xmlns:xlink="http://www.w3.org/1999/xlink">
    <!-- Generator: Sketch 47.1 (45422) - http://www.bohemiancoding.com/sketch -->
    <title>flag</title>
    <desc>Created with Sketch.</desc>
    <defs>
        <polygon id="path-1" points="0.0004 23.7321 24.1984 23.7321 24.1984 0.0003 0.0004 0.0003"></polygon>
    </defs>
    <g id="Page-1" stroke="none" stroke-width="1" fill="none" fill-rule="evenodd">
        <g id="flag">
            <g id="Page-1" transform="translate(8.000000, 8.000000)">
                <mask id="mask-2" fill="white">
                    <use xlink:href="#path-1"></use>
                </mask>
                <g id="Clip-2"></g>
                <path d="M5.8664,15.5993 C7.3994,15.5993 8.7664,15.9653 10.3994,16.4323 C12.4994,16.9993 14.8994,17.6323 18.4654,17.6323 C19.8994,17.6323 21.9654,17.3653 22.9324,17.2323 L22.9324,2.4333 C21.7984,2.6663 19.7654,3.0003 18.0324,3.0003 C16.8664,3.0003 14.9324,2.6333 12.6994,2.2333 C10.3324,1.7663 7.6324,1.2663 5.8994,1.2663 C3.5664,1.2663 1.9004,1.9333 1.2664,2.2003 L1.2664,16.1653 C3.1664,15.5993 5.7334,15.5993 5.8664,15.5993 L5.8664,15.5993 Z M1.2664,23.7323 L0.0004,23.7323 L0.0004,1.4333 C0.6334,1.0663 2.6664,0.0003 5.8994,0.0003 C7.7334,0.0003 10.3664,0.5003 12.9324,1.0003 C14.9994,1.3663 16.9654,1.7333 18.0324,1.7333 C20.3324,1.7333 22.8984,1.1333 24.1984,0.8333 L24.1984,18.3323 C23.1654,18.4993 20.3654,18.8993 18.4654,18.8993 C14.7324,18.8993 12.1664,18.1993 10.0994,17.6323 C8.5994,17.1993 7.2664,16.8663 5.8664,16.8663 C5.8334,16.8663 2.9664,16.8663 1.2664,17.4993 L1.2664,23.7323 Z" id="Fill-1" fill="#DA291C" mask="url(#mask-2)"></path>
            </g>
        </g>
    </g>
</svg>