<?xml version="1.0" encoding="utf-8"?>
<!-- Generator: Adobe Illustrator 20.0.0, SVG Export Plug-In . SVG Version: 6.00 Build 0)  -->
<svg version="1.1" id="Layer_1" xmlns="http://www.w3.org/2000/svg" xmlns:xlink="http://www.w3.org/1999/xlink" x="0px" y="0px"
	 viewBox="0 0 40 40" style="enable-background:new 0 0 40 40;" xml:space="preserve">
<style type="text/css">
	.st0{fill:#DA291C;}
</style>
<title>pay insurance</title>
<desc>Created with Sketch.</desc>
<g id="Page-1_1_">
	<g id="pay-insurance">
		<g id="Page-1" transform="translate(6.000000, 8.000000)">
			<path id="Fill-1" class="st0" d="M18,12.6c-0.1,0.2-0.4,0.3-0.6,0.3c-0.2-0.1-0.4-0.3-0.3-0.7L18,12.6z M20.2,13l-1-0.4
				c0.2-0.3,0.5-0.4,0.6-0.3C20.1,12.3,20.3,12.6,20.2,13L20.2,13z M21,13.2c0.3-1-0.1-1.7-0.8-1.9c-0.7-0.3-1.3,0-1.8,0.7l-0.1,0.1
				l-1.1-0.4c0.2-0.2,0.5-0.3,0.8-0.3l0.1,0l0.1-0.9l0,0c-0.2,0-1.1-0.1-1.6,0.9l-0.6-0.2l-0.2,0.5l0.6,0.2
				c-0.2,0.8,0.1,1.6,0.8,1.9c0.6,0.3,1.3,0,1.7-0.7l0.1-0.2l1.1,0.4c-0.2,0.3-0.5,0.5-0.9,0.5h0l-0.1,0.9l0.1,0c0.1,0,0.2,0,0.3,0
				c0.7,0,1.2-0.4,1.5-1.1l0.6,0.2l0.2-0.5L21,13.2z"/>
			<g id="Clip-4">
			</g>
			<path class="st0" d="M17.6,1L17.6,1l-1.6,4h-5.6C8.8,5,7.8,5.9,7.8,7.4v0.2H6.7V5.8H0v12.7h6.7v-1.6h1.2c0.1,1.4,1,2.2,2.5,2.2h0
				l-0.5,1.3l9.8,3.9l0.1,0l7.6-19.4l0-0.1L17.6,1z M5.4,17.3H1.3V7h4.2V17.3z M10.3,17.9c-0.9,0-1.3-0.4-1.3-1.2v-1H6.7V8.9h2.4
				V7.4c0-0.8,0.4-1.2,1.3-1.2h7.1c0.2,0,0.8,0.1,0.8,0.7c0,0.4-0.4,0.8-0.8,0.8h-4.6V9h1.6l-3.5,8.9H10.3z M19,22.7l-7.5-3L15.7,9
				h1.6c1.2,0,2.1-0.9,2.1-2.1c0-1.3-1-1.9-2-1.9h-0.1l0.9-2.4l7.5,3L19,22.7z"/>
		</g>
	</g>
</g>
</svg>
