<?xml version="1.0" encoding="UTF-8" standalone="no"?>
<svg width="40px" height="40px" viewBox="0 0 40 40" version="1.1" xmlns="http://www.w3.org/2000/svg" xmlns:xlink="http://www.w3.org/1999/xlink">
    <!-- Generator: Sketch 47.1 (45422) - http://www.bohemiancoding.com/sketch -->
    <title>tow truck</title>
    <desc>Created with Sketch.</desc>
    <defs>
        <polygon id="path-1" points="34.195 17.8823 34.195 0.0003 0.0001 0.0003 0.0001 17.8823"></polygon>
    </defs>
    <g id="Page-1" stroke="none" stroke-width="1" fill="none" fill-rule="evenodd">
        <g id="tow-truck">
            <g id="Page-1" transform="translate(3.000000, 11.000000)">
                <mask id="mask-2" fill="white">
                    <use xlink:href="#path-1"></use>
                </mask>
                <g id="Clip-2"></g>
                <path d="M20.2491,7.9903 L20.2491,2.8973 L25.4781,2.8973 L30.3041,8.7903 L32.9311,8.7903 L32.9311,13.8473 L29.2961,13.8473 C29.0011,12.2173 27.6051,11.0473 25.9371,11.0473 C24.2691,11.0473 22.8731,12.2173 22.5781,13.8473 L14.6571,13.8473 C14.3611,12.2173 12.9541,11.0473 11.2711,11.0473 C9.6471,11.0473 8.2631,12.1843 7.9411,13.7673 L6.0901,13.7673 L6.0901,7.9903 L20.2491,7.9903 Z M11.2711,12.3103 C12.4261,12.3103 13.4391,13.3233 13.4391,14.4783 C13.4391,15.6393 12.4461,16.6203 11.2711,16.6203 C10.1101,16.6203 9.1301,15.6393 9.1301,14.4783 C9.1301,13.3033 10.1101,12.3103 11.2711,12.3103 L11.2711,12.3103 Z M25.9371,12.3103 C27.0981,12.3103 28.0781,13.3033 28.0781,14.4783 C28.0781,15.6393 27.0981,16.6203 25.9371,16.6203 C24.7761,16.6203 23.7951,15.6393 23.7951,14.4783 C23.7951,13.3033 24.7761,12.3103 25.9371,12.3103 L25.9371,12.3103 Z M30.9031,7.5273 L26.1141,1.6793 L26.0761,1.6343 L18.9851,1.6343 L18.9851,6.7273 L11.5831,6.7273 L11.5831,2.8613 L0.1551,0.0383 L0.0001,0.0003 L0.0001,6.4973 L1.2631,6.4973 L1.2631,1.5983 L10.3191,3.8303 L10.3191,6.7273 L4.8261,6.7273 L4.8261,15.0303 L7.9101,15.0303 C8.1821,16.6643 9.6081,17.8823 11.2711,17.8823 C12.9251,17.8823 14.3311,16.7233 14.6551,15.1103 L22.5801,15.1103 C22.9031,16.7233 24.2981,17.8823 25.9371,17.8823 C27.5761,17.8823 28.9711,16.7233 29.2941,15.1103 L34.1951,15.1103 L34.1951,7.5273 L30.9031,7.5273 Z" id="Fill-1" fill="#DA291C" mask="url(#mask-2)"></path>
            </g>
        </g>
    </g>
</svg>